# xmcd
#
# Track frame offsets: 
#        150
#        21380
#        43507
#        68194
#        91541
#        112234
#        135229
#        163169
#        187814
#        211199
#
# Disc length: 3141 seconds
#
# Revision: 0
# Processed by: cddbd v1.5.2PL0 Copyright (c) Steve Scherf et al.
# Submitted via: ExactAudioCopy v1.0b3
#
DISCID=7f0c430a
DTITLE=群星 - 发烧39°9
DYEAR=2009
DGENRE=A Cappella
TTITLE0=好男人
TTITLE1=秋天不回来
TTITLE2=离歌
TTITLE3=蓝眼泪
TTITLE4=冰吻
TTITLE5=生日礼物
TTITLE6=白狐
TTITLE7=求佛
TTITLE8=菊花台
TTITLE9=赤道与北极
EXTD=
EXTT0=
EXTT1=
EXTT2=
EXTT3=
EXTT4=
EXTT5=
EXTT6=
EXTT7=
EXTT8=
EXTT9=
PLAYORDER=
